{
  "accessors": [
    {
      "name": "Cylinder.002-Mesh_0_positions",
      "componentType": 5126,
      "count": 1474,
      "min": [
        -2.5870089530944824,
        -0.08272399753332138,
        -2.415313959121704
      ],
      "max": [
        -1.350780963897705,
        1.0593830347061157,
        -1.1790859699249268
      ],
      "type": "VEC3",
      "bufferView": 0,
      "byteOffset": 0
    },
    {
      "name": "Cylinder.002-Mesh_0_normals",
      "componentType": 5126,
      "count": 1474,
      "min": [
        -0.9999992847442627,
        -1,
        -0.9999992847442627
      ],
      "max": [
        0.9999992847442627,
        1,
        0.9999992847442627
      ],
      "type": "VEC3",
      "bufferView": 1,
      "byteOffset": 0
    },
    {
      "name": "Cylinder.002-Mesh_0_indices",
      "componentType": 5123,
      "count": 8832,
      "min": [
        0
      ],
      "max": [
        1473
      ],
      "type": "SCALAR",
      "bufferView": 2,
      "byteOffset": 0
    },
    {
      "name": "Cylinder.001-Mesh_0_positions",
      "componentType": 5126,
      "count": 1474,
      "min": [
        1.4330379962921143,
        -0.08272399753332138,
        -2.415313959121704
      ],
      "max": [
        2.6692659854888916,
        1.0593830347061157,
        -1.1790859699249268
      ],
      "type": "VEC3",
      "bufferView": 0,
      "byteOffset": 17688
    },
    {
      "name": "Cylinder.001-Mesh_0_normals",
      "componentType": 5126,
      "count": 1474,
      "min": [
        -0.9999992847442627,
        -1,
        -0.9999992847442627
      ],
      "max": [
        0.9999992847442627,
        1,
        0.9999992847442627
      ],
      "type": "VEC3",
      "bufferView": 1,
      "byteOffset": 17688
    },
    {
      "name": "Cylinder.001-Mesh_0_indices",
      "componentType": 5123,
      "count": 8832,
      "min": [
        0
      ],
      "max": [
        1473
      ],
      "type": "SCALAR",
      "bufferView": 2,
      "byteOffset": 17664
    },
    {
      "name": "Cylinder-Mesh_0_positions",
      "componentType": 5126,
      "count": 1474,
      "min": [
        -0.6181139945983887,
        -0.08272399753332138,
        -3.529210090637207
      ],
      "max": [
        0.6181139945983887,
        1.0593830347061157,
        -2.2929821014404297
      ],
      "type": "VEC3",
      "bufferView": 0,
      "byteOffset": 35376
    },
    {
      "name": "Cylinder-Mesh_0_normals",
      "componentType": 5126,
      "count": 1474,
      "min": [
        -0.9999992847442627,
        -1,
        -0.9999992847442627
      ],
      "max": [
        0.9999992847442627,
        1,
        0.9999992847442627
      ],
      "type": "VEC3",
      "bufferView": 1,
      "byteOffset": 35376
    },
    {
      "name": "Cylinder-Mesh_0_indices",
      "componentType": 5123,
      "count": 8832,
      "min": [
        0
      ],
      "max": [
        1473
      ],
      "type": "SCALAR",
      "bufferView": 2,
      "byteOffset": 35328
    },
    {
      "name": "Circle-Mesh_0_positions",
      "componentType": 5126,
      "count": 1473,
      "min": [
        -4.521492004394531,
        -0.08904100209474564,
        -4.521492004394531
      ],
      "max": [
        4.521492004394531,
        0.11618199944496155,
        4.521492004394531
      ],
      "type": "VEC3",
      "bufferView": 0,
      "byteOffset": 53064
    },
    {
      "name": "Circle-Mesh_0_normals",
      "componentType": 5126,
      "count": 1473,
      "min": [
        -1,
        -1,
        -1
      ],
      "max": [
        1,
        0,
        1
      ],
      "type": "VEC3",
      "bufferView": 1,
      "byteOffset": 53064
    },
    {
      "name": "Circle-Mesh_0_indices",
      "componentType": 5123,
      "count": 8640,
      "min": [
        0
      ],
      "max": [
        1472
      ],
      "type": "SCALAR",
      "bufferView": 2,
      "byteOffset": 52992
    },
    {
      "name": "Teapot-Mesh_0_positions",
      "componentType": 5126,
      "count": 3265,
      "min": [
        -1.703521966934204,
        0.000699999975040555,
        -0.7237280011177063
      ],
      "max": [
        3.7985880374908447,
        3.1473000049591064,
        3.21097993850708
      ],
      "type": "VEC3",
      "bufferView": 0,
      "byteOffset": 70740
    },
    {
      "name": "Teapot-Mesh_0_normals",
      "componentType": 5126,
      "count": 3265,
      "min": [
        -0.9976187348365784,
        -1,
        -0.9996317028999329
      ],
      "max": [
        0.995940089225769,
        1,
        0.995940089225769
      ],
      "type": "VEC3",
      "bufferView": 1,
      "byteOffset": 70740
    },
    {
      "name": "Teapot-Mesh_0_indices",
      "componentType": 5123,
      "count": 18960,
      "min": [
        0
      ],
      "max": [
        3264
      ],
      "type": "SCALAR",
      "bufferView": 2,
      "byteOffset": 70272
    }
  ],
  "asset": {
    "generator": "obj2gltf",
    "version": "2.0"
  },
  "buffers": [
    {
      "name": "teapot_n_glass",
      "byteLength": 328032,
      "uri": "data:application/octet-stream;base64,"
    }
  ],
  "bufferViews": [
    {
      "name": "bufferView_0",
      "buffer": 0,
      "byteLength": 109920,
      "byteOffset": 0,
      "byteStride": 12,
      "target": 34962
    },
    {
      "name": "bufferView_1",
      "buffer": 0,
      "byteLength": 109920,
      "byteOffset": 109920,
      "byteStride": 12,
      "target": 34962
    },
    {
      "name": "bufferView_2",
      "buffer": 0,
      "byteLength": 108192,
      "byteOffset": 219840,
      "target": 34963
    }
  ],
  "materials": [
    {
      "name": "None",
      "pbrMetallicRoughness": {
        "baseColorFactor": [
          0.8,
          0.8,
          0.8,
          1
        ],
        "metallicFactor": 0,
        "roughnessFactor": 1
      },
      "emissiveFactor": [
        0,
        0,
        0
      ],
      "alphaMode": "OPAQUE",
      "doubleSided": false
    }
  ],
  "meshes": [
    {
      "name": "Cylinder.002-Mesh",
      "primitives": [
        {
          "attributes": {
            "POSITION": 0,
            "NORMAL": 1
          },
          "indices": 2,
          "material": 0,
          "mode": 4
        }
      ]
    },
    {
      "name": "Cylinder.001-Mesh",
      "primitives": [
        {
          "attributes": {
            "POSITION": 3,
            "NORMAL": 4
          },
          "indices": 5,
          "material": 0,
          "mode": 4
        }
      ]
    },
    {
      "name": "Cylinder-Mesh",
      "primitives": [
        {
          "attributes": {
            "POSITION": 6,
            "NORMAL": 7
          },
          "indices": 8,
          "material": 0,
          "mode": 4
        }
      ]
    },
    {
      "name": "Circle-Mesh",
      "primitives": [
        {
          "attributes": {
            "POSITION": 9,
            "NORMAL": 10
          },
          "indices": 11,
          "material": 0,
          "mode": 4
        }
      ]
    },
    {
      "name": "Teapot-Mesh",
      "primitives": [
        {
          "attributes": {
            "POSITION": 12,
            "NORMAL": 13
          },
          "indices": 14,
          "material": 0,
          "mode": 4
        }
      ]
    }
  ],
  "nodes": [
    {
      "name": "Cylinder.002",
      "mesh": 0
    },
    {
      "name": "Cylinder.001",
      "mesh": 1
    },
    {
      "name": "Cylinder",
      "mesh": 2
    },
    {
      "name": "Circle",
      "mesh": 3
    },
    {
      "name": "Teapot",
      "mesh": 4
    }
  ],
  "scene": 0,
  "scenes": [
    {
      "nodes": [
        0,
        1,
        2,
        3,
        4
      ]
    }
  ]
}
